<svg xmlns="http://www.w3.org/2000/svg" width="253" height="239" viewBox="0 0 253 239"><defs><mask id="kd9bb" width="2" height="2" x="-1" y="-1"><path fill="#fff" d="M4 1h156v156H4z"/><path d="M82 157c-43.078 0-78-34.922-78-78S38.922 1 82 1s78 34.922 78 78-34.922 78-78 78z"/></mask><filter id="kd9ba" width="188" height="191" x="-12" y="-15" filterUnits="userSpaceOnUse"><feOffset dy="3" in="SourceGraphic" result="FeOffset1074Out"/><feGaussianBlur in="FeOffset1074Out" result="FeGaussianBlur1075Out" stdDeviation="2.4 2.4"/></filter><mask id="kd9bd" width="2" height="2" x="-1" y="-1"><path fill="#fff" d="M93 76h156v156H93z"/><path d="M170 232c-42.526 0-77-34.474-77-77v-2c0-42.526 34.474-77 77-77h2c42.526 0 77 34.474 77 77v2c0 42.526-34.474 77-77 77z"/></mask><filter id="kd9bc" width="188" height="191" x="77" y="60" filterUnits="userSpaceOnUse"><feOffset dy="3" in="SourceGraphic" result="FeOffset1095Out"/><feGaussianBlur in="FeOffset1095Out" result="FeGaussianBlur1096Out" stdDeviation="2.4 2.4"/></filter></defs><g><g><g filter="url(#kd9ba)"><path fill="none" d="M82 157c-43.078 0-78-34.922-78-78S38.922 1 82 1s78 34.922 78 78-34.922 78-78 78z" mask="url(&quot;#kd9bb&quot;)"/><path fill-opacity=".05" d="M82 157c-43.078 0-78-34.922-78-78S38.922 1 82 1s78 34.922 78 78-34.922 78-78 78z"/></g><path fill="#fff" d="M82 157c-43.078 0-78-34.922-78-78S38.922 1 82 1s78 34.922 78 78-34.922 78-78 78z"/></g><g><path fill="#9e0b0f" d="M97.479 91.733a5.704 5.704 0 0 1 5.699-5.71 5.704 5.704 0 0 1 5.699 5.71 5.704 5.704 0 0 1-5.7 5.71 5.704 5.704 0 0 1-5.698-5.71zm-41.792 0a5.704 5.704 0 0 1 5.699-5.71 5.704 5.704 0 0 1 5.699 5.71 5.704 5.704 0 0 1-5.7 5.71 5.704 5.704 0 0 1-5.698-5.71zm5.266-36.163h42.658l8.548 22.84H52.404zm47.924 57.1a3.803 3.803 0 0 0 3.799 3.807h3.8c2.097 0 3.798-1.705 3.798-3.807V78.41l-9.547-25.512a7.6 7.6 0 0 0-7.116-4.941H60.953a7.599 7.599 0 0 0-7.116 4.94L44.289 78.41v34.26a3.803 3.803 0 0 0 3.8 3.807h3.799c2.098 0 3.799-1.705 3.799-3.807v-3.807h53.19z"/></g><g><g filter="url(#kd9bc)"><path fill="none" d="M170 232c-42.526 0-77-34.474-77-77v-2c0-42.526 34.474-77 77-77h2c42.526 0 77 34.474 77 77v2c0 42.526-34.474 77-77 77z" mask="url(&quot;#kd9bd&quot;)"/><path fill-opacity=".05" d="M170 232c-42.526 0-77-34.474-77-77v-2c0-42.526 34.474-77 77-77h2c42.526 0 77 34.474 77 77v2c0 42.526-34.474 77-77 77z"/></g><path fill="#9e0b0f" d="M170 232c-42.526 0-77-34.474-77-77v-2c0-42.526 34.474-77 77-77h2c42.526 0 77 34.474 77 77v2c0 42.526-34.474 77-77 77z"/></g><g><g><text dominant-baseline="text-before-edge" style="font-kerning:normal" fill="#fff" font-family="'Arvo','Arvo-Bold'" font-size="92" font-style="none" font-weight="700" transform="translate(144 98)"><tspan>$</tspan></text></g></g></g></svg>